:SAMPLES-PER-SECOND 30
:FULLY-SPECIFIED
:DEGREES
668
root  14.0645 39.3832 -16.6625 25.5011 79.1479 32.4759
RightUpLeg  -23.1686 -3.22437 -9.41062
RightLeg  48.3023 -3.15032 -4.1318
RightFoot  2.87945 -0.125747 1.1868
RightToes  0.000482159 0.542163 -0.142577
Spine  18.534 0.0271994 2.77968
Spine1  8.85617 1.38504 -3.79472
HEad  14.5605 -8.41712 -0.354347
LeftShoulder1  8.02225 -12.2467 -44.3543
LeftArm  -10.4947 20.9312 -26.9336
LeftForeArm  43.2721 -47.1061 -8.94868
LeftHand  -0.25398 0.0180481 5.50724
RightShoulder  5.35511 9.32765 35.759
RightArm  3.64002 -12.7221 35.4763
RightForeArm  24.852 69.6199 29.4953
RightHand  -5.16743 14.052 -30.594
LeftUpLeg  -0.0262137 9.67371 -10.9604
LeftLeg  16.7423 10.8447 0.505898
LeftFoot  -11.2457 0.061139 6.93746
LeftToes  1.06246e-005 4.65854e-005 -8.18502e-006
669
root  15.559 39.2737 -16.417 30.2627 79.7167 37.0148
RightUpLeg  -23.6393 -5.95611 -9.1479
RightLeg  36.7896 -3.09716 -2.79905
RightFoot  1.27727 -0.282791 2.61963
RightToes  0.000482159 0.542163 -0.142577
Spine  18.3484 -0.0407152 1.89159
Spine1  8.80495 0.883155 -2.77077
HEad  13.8941 -9.77009 -0.372142
LeftShoulder1  7.96495 -12.275 -43.9391
LeftArm  -11.3097 20.2098 -26.7668
LeftForeArm  44.6188 -51.0583 -10.4116
LeftHand  -0.25398 0.0180481 5.50724
RightShoulder  5.32886 9.31957 35.5842
RightArm  2.90064 -13.1326 34.5423
RightForeArm  24.7614 69.9198 30.1312
RightHand  -5.20395 13.9652 -30.9258
LeftUpLeg  2.26844 8.09034 -11.1191
LeftLeg  16.9581 11.7664 0.280384
LeftFoot  -13.5224 0.204672 6.42522
LeftToes  1.06246e-005 4.65854e-005 -8.18502e-006
670
root  17.1053 39.1181 -16.173 36.0211 79.9922 42.4921
RightUpLeg  -23.2908 -11.2571 -8.07141
RightLeg  23.761 -1.41234 -1.00943
RightFoot  1.20671 -0.39953 3.69285
RightToes  0.000482159 0.542163 -0.142577
Spine  17.8866 -0.0719286 1.12843
Spine1  9.12007 0.457921 -1.61078
HEad  13.0762 -11.1482 -0.476035
LeftShoulder1  7.96669 -12.3735 -43.6621
LeftArm  -12.096 19.387 -26.4104
LeftForeArm  45.6543 -53.9537 -11.6645
LeftHand  -0.25398 0.0180481 5.50724
RightShoulder  5.31639 9.31479 35.504
RightArm  1.86962 -13.5039 33.8211
RightForeArm  24.7838 70.1126 30.5376
RightHand  -5.26574 13.9105 -31.3513
LeftUpLeg  4.88005 7.00543 -11.5948
LeftLeg  16.473 12.0946 -0.0155612
LeftFoot  -15.7706 0.335334 6.21075
LeftToes  1.06246e-005 4.65854e-005 -8.18502e-006
671
root  18.6805 38.909 -15.9319 40.6219 79.9456 47.0778
RightUpLeg  -21.7303 -15.6355 -7.3679
RightLeg  10.4949 -2.64215 1.29396
RightFoot  1.10692 -0.602566 5.61892
RightToes  0.000482159 0.542163 -0.142577
Spine  17.6933 -0.0457873 0.66876
Spine1  9.71646 0.129868 -0.462667
HEad  12.6095 -12.2116 -0.914066
LeftShoulder1  8.00174 -12.4728 -43.5773
LeftArm  -13.0502 18.664 -25.9659
LeftForeArm  46.4952 -56.0102 -12.6656
LeftHand  -0.25398 0.0180481 5.50724
RightShoulder  5.28786 9.28019 35.3952
RightArm  0.779536 -13.6362 33.4425
RightForeArm  23.8954 69.9468 30.3478
RightHand  -5.49098 14.2653 -32.0531
LeftUpLeg  7.84161 7.12692 -11.8612
LeftLeg  15.8911 11.3299 -0.353661
LeftFoot  -17.5616 0.40784 5.56893
LeftToes  1.06246e-005 4.65854e-005 -8.18502e-006
672
root  20.3185 38.5608 -15.6623 43.8035 79.6022 50.3607
RightUpLeg  -18.8329 -11.2198 -10.0614
RightLeg  -0.679821 -14.1082 5.53416
RightFoot  -0.44617 -0.773145 8.05734
RightToes  0.000482159 0.542163 -0.142577
Spine  17.6622 0.0711088 0.225664
Spine1  10.3221 -0.0511254 0.448196
HEad  12.3684 -12.997 -1.69899
LeftShoulder1  8.02044 -12.5393 -43.494
LeftArm  -14.1619 18.2231 -25.7756
LeftForeArm  47.0192 -57.2273 -13.3133
LeftHand  -0.25398 0.0180481 5.50724
RightShoulder  5.24695 9.24968 35.1776
RightArm  -0.381704 -13.5054 33.3939
RightForeArm  22.4637 69.3941 29.4659
RightHand  -5.75297 14.8344 -32.6007
LeftUpLeg  10.4213 8.78895 -11.8079
LeftLeg  16.6941 9.52532 -0.152745
LeftFoot  -19.5452 0.43812 4.46563
LeftToes  1.06246e-005 4.65854e-005 -8.18502e-006
673
root  21.9851 38.1421 -15.3871 44.6111 79.235 50.9791
RightUpLeg  -18.0485 -11.1965 -9.41235
RightLeg  -5.47842 -18.5678 7.54182
RightFoot  -1.54802 -0.724127 8.26325
RightToes  0.000482159 0.542163 -0.142577
Spine  17.6424 0.179378 0.475464
Spine1  10.8763 -0.071919 1.05806
HEad  12.0264 -13.7228 -2.51451
LeftShoulder1  8.03912 -12.5951 -43.4415
LeftArm  -14.9387 18.1815 -25.641
LeftForeArm  47.0232 -57.6077 -13.5409
LeftHand  -0.25398 0.0180481 5.50724
RightShoulder  5.23469 9.27554 35.0014
RightArm  -1.68775 -13.2542 33.4657
RightForeArm  21.3427 68.7124 28.3488
RightHand  -5.87089 15.1902 -32.6859
LeftUpLeg  12.4933 11.8458 -11.1499
LeftLeg  18.2856 6.74811 0.617899
LeftFoot  -22.0876 0.439852 3.27663
LeftToes  1.06246e-005 4.65854e-005 -8.18502e-006
674
root  23.587 37.7794 -15.1702 41.417 79.3354 47.1898
RightUpLeg  -19.4928 -10.7338 -8.07807
RightLeg  -3.11434 -20.2387 7.36534
RightFoot  1.59132 -0.454036 4.32228
RightToes  0.000482159 0.542163 -0.142577
Spine  18.1689 -0.0238124 2.74337
Spine1  11.3235 -0.0239846 1.08881
HEad  11.6025 -14.2728 -3.18822
LeftShoulder1  8.13218 -12.6632 -43.7768
LeftArm  -15.1245 18.5186 -25.081
LeftForeArm  46.5733 -57.2288 -13.3548
LeftHand  -0.25398 0.0180481 5.50724
RightShoulder  5.26941 9.34328 35.0546
RightArm  -3.02431 -12.7194 33.4647
RightForeArm  20.1995 67.8781 27.0692
RightHand  -5.92209 15.3641 -32.694
LeftUpLeg  13.8299 15.3533 -9.34657
LeftLeg  20.5439 3.19041 1.35114
LeftFoot  -24.3629 0.242352 0.897665
LeftToes  1.06246e-005 4.65854e-005 -8.18502e-006
675
root  25.1258 37.4152 -15.0106 34.0029 80.0293 39.1989
RightUpLeg  -23.0998 -12.3511 -5.62462
RightLeg  5.00648 -17.0927 5.59993
RightFoot  7.84726 0.411815 -2.04531
RightToes  0.000482159 0.542163 -0.142577
Spine  19.8687 -0.800923 6.77461
Spine1  11.1 0.0848217 0.243683
HEad  11.1213 -14.4559 -3.83606
LeftShoulder1  8.31388 -12.7612 -44.5215
LeftArm  -15.1182 18.8793 -24.463
LeftForeArm  45.8752 -55.887 -12.658
LeftHand  -0.25398 0.0180481 5.50724
RightShoulder  5.34047 9.43484 35.3088
RightArm  -4.22357 -11.2896 33.2362
RightForeArm  17.8904 66.3388 25.0421
RightHand  -6.15714 15.836 -33.1947
LeftUpLeg  12.9323 15.9773 -6.9209
LeftLeg  26.95 2.08192 1.52971
LeftFoot  -24.5789 -0.241506 -3.4737
LeftToes  1.06246e-005 4.65854e-005 -8.18502e-006
676
root  26.4976 37.0769 -14.8551 22.1905 80.7975 26.7905
RightUpLeg  -27.9319 -20.2348 0.91215
RightLeg  13.669 -6.37275 3.2255
RightFoot  12.4098 1.73116 -7.89952
RightToes  0.000482159 0.542163 -0.142577
Spine  22.9807 -1.7655 11.0479
Spine1  10.2852 0.351862 -0.543669
HEad  9.96181 -14.5942 -4.31154
LeftShoulder1  8.52037 -12.956 -45.1132
LeftArm  -15.1365 18.6241 -24.7323
LeftForeArm  44.8651 -53.2828 -11.4153
LeftHand  -0.25398 0.0180481 5.50724
RightShoulder  5.46427 9.65561 35.5519
RightArm  -5.28833 -8.34578 32.6325
RightForeArm  13.8083 63.4846 21.9951
RightHand  -6.69154 16.9209 -34.2359
LeftUpLeg  8.29722 16.2051 -4.02194
LeftLeg  39.0822 2.39107 2.54999
LeftFoot  -19.6792 -0.411862 -7.36574
LeftToes  1.06246e-005 4.65854e-005 -8.18502e-006
677
root  27.5494 36.7778 -14.6546 8.20599 81.3116 12.1147
RightUpLeg  -32.7259 -26.521 8.37324
RightLeg  20.6696 1.3684 0.681889
RightFoot  11.7499 2.51116 -11.8927
RightToes  0.000482159 0.542163 -0.142577
Spine  27.1661 -2.51909 14.1828
Spine1  9.67742 0.702664 -0.0436867
HEad  7.23607 -15.1751 -4.04834
LeftShoulder1  8.71309 -13.3131 -45.1572
LeftArm  -14.4986 17.3587 -25.8326
LeftForeArm  43.5027 -49.9968 -10.0511
LeftHand  -0.25398 0.0180481 5.50724
RightShoulder  5.62706 10.0892 35.4296
RightArm  -6.32642 -3.62726 31.9278
RightForeArm  8.31253 59.0326 18.3967
RightHand  -7.38721 18.3806 -35.3772
LeftUpLeg  0.0906448 16.0698 -1.58251
LeftLeg  54.0882 3.52638 5.77236
LeftFoot  -10.0092 0.118815 -7.61836
LeftToes  1.06246e-005 4.65854e-005 -8.18502e-006
678
root  28.3 36.4876 -14.4293 -4.05786 81.8224 -0.881958
RightUpLeg  -34.7329 -24.9694 10.3087
RightLeg  25.8267 -1.11691 -0.895892
RightFoot  8.15995 2.4529 -13.8419
RightToes  0.000482159 0.542163 -0.142577
Spine  31.5678 -3.16759 16.183
Spine1  9.75428 0.840216 1.42524
HEad  2.96264 -16.0966 -2.88674
LeftShoulder1  8.90424 -13.768 -44.923
LeftArm  -12.6053 15.4738 -26.6394
LeftForeArm  42.5201 -47.6827 -9.20698
LeftHand  -0.25398 0.0180481 5.50724
RightShoulder  5.68163 10.5215 34.5547
RightArm  -7.32871 2.79745 31.8601
RightForeArm  2.4294 52.9792 14.829
RightHand  -8.00502 19.7247 -36.2045
LeftUpLeg  -9.67801 15.1679 -0.232423
LeftLeg  67.2325 3.29213 9.22946
LeftFoot  -2.23322 0.374551 -4.49114
LeftToes  1.06246e-005 4.65854e-005 -8.18502e-006
